<svg xmlns="http://www.w3.org/2000/svg" width="1024" height="1024" viewBox="0 0 1024 1024">
  <defs>
    <style>
      .cls-1 {
        fill: none;
        stroke: #e50000;
        stroke-width: 20px;
      }

      .cls-2 {
        fill: #e50000;
        fill-rule: evenodd;
      }
    </style>
  </defs>
  <circle class="cls-1" cx="512" cy="512" r="397.5"/>
  <path id="Rectangle_arrondi_1" data-name="Rectangle arrondi 1" class="cls-2" d="M656,340h98a10,10,0,0,1,10,10V564a10,10,0,0,1-10,10H656a10,10,0,0,1-10-10V350A10,10,0,0,1,656,340ZM628,556V358s-108-54-162-54H376s-18,0-36,18-28,30-36,60-26,156-18,192c0,0,0,18,18,36s126,0,126,0-36,38-36,64,0,62,18,80,36,18,54,18,26-18,26-36,10-54,28-72,72-90,72-90,0,9,18,0S628,556,628,556Z"/>
</svg>
