<svg xmlns="http://www.w3.org/2000/svg" width="1024" height="1024" viewBox="0 0 1024 1024">
  <defs>
    <style>
      .cls-1 {
        fill: #4e4e4e;
        fill-rule: evenodd;
      }
    </style>
  </defs>
  <g id="Plan_de_travail_1" data-name="Plan de travail 1">
    <path class="cls-1" d="M512,0c282.77,0,512,229.23,512,512s-229.23,512-512,512S0,794.77,0,512,229.23,0,512,0ZM216.01,349.669s1.611-22.547,1.611,148.166c-3.221-1.611,1.61,330.153,320.489,330.153C828,827.988,828,500.223,828,497.835V349.669s0-72.473-57.978-72.473-57.978,72.473-57.978,72.473V496.224c0-1.191,0,215.807-173.935,215.807-202.923,0-202.923-210.633-202.923-215.807,0-.6-3.221-146.555-3.221-146.555s0-72.473-57.978-72.473S216.01,349.669,216.01,349.669Z"/>
  </g>
</svg>
