<svg xmlns="http://www.w3.org/2000/svg" width="1024" height="1024" viewBox="0 0 1024 1024">
  <defs>
    <style>
      .cls-1 {
        fill: #fff;
      }

      .cls-2 {
        fill: #007bff;
        fill-rule: evenodd;
      }
    </style>
  </defs>
  <circle class="cls-1" cx="512" cy="512" r="496"/>
  <path id="Players" class="cls-2" d="M512,0c282.77,0,512,229.23,512,512s-229.23,512-512,512S0,794.77,0,512,229.23,0,512,0Zm0,135.156c111.786,0,202.406,90.628,202.406,202.422S623.786,540,512,540,309.594,449.373,309.594,337.578,400.214,135.156,512,135.156Zm0,450.678c112.515,0,205.341-112.515,205.341-112.515s82.03,64.2,118.141,136.425c39.669,79.338,42.193,178.618,42.193,178.618H512m0-202.528c-112.516,0-205.341-112.515-205.341-112.515s-82.03,64.2-118.141,136.425c-39.669,79.338-42.193,178.618-42.193,178.618H512"/>
</svg>
