<svg id="Calque_2" data-name="Calque 2" xmlns="http://www.w3.org/2000/svg" viewBox="0 0 9600 5125"><defs><style>.cls-1{fill:#5083c2;}.cls-1,.cls-10,.cls-11,.cls-12,.cls-13,.cls-14,.cls-15,.cls-2,.cls-3,.cls-4,.cls-5,.cls-6,.cls-7,.cls-8,.cls-9{isolation:isolate;}.cls-2{fill:#00a9bb;}.cls-3{fill:#95c14e;}.cls-4{fill:#c5d645;}.cls-5{fill:#f9dc30;}.cls-6{fill:#e0922f;}.cls-7{fill:#fd927d;}.cls-8{fill:#9493a9;}.cls-9{fill:#bcb5b2;}.cls-10{fill:#ac9473;}.cls-11{fill:#691c00;}.cls-12{fill:#f04130;}.cls-13{fill:#cc203c;}.cls-14{fill:#ca0088;}.cls-15{fill:#a44b95;}</style></defs><polygon class="cls-1" points="4800 0 0 0 0 695 4800 0"/><polygon class="cls-2" points="0 695 0 1594 4800 0 0 695"/><polygon class="cls-3" points="0 1594 4800 0 0 2660.67 0 1594"/><polygon class="cls-4" points="0 2660.67 4800 0 0 3818 0 2660.67"/><polygon class="cls-5" points="0 3818 4800 0 253 5125 0 5125 0 3818"/><polygon class="cls-6" points="253 5125 4800 0 1782.33 5125 253 5125"/><polygon class="cls-7" points="1782.33 5125 4800 0 3350.33 5125 1782.33 5125"/><polygon class="cls-8" points="4800 0 9600 0 9600 695 4800 0"/><polygon class="cls-9" points="9600 695 9600 1594 4800 0 9600 695"/><polygon class="cls-10" points="9600 1594 4800 0 9600 2660.67 9600 1594"/><polygon class="cls-11" points="9600 2660.67 4800 0 9600 3818 9600 2660.67"/><polygon class="cls-12" points="9600 3818 4800 0 9347 5125 9600 5125 9600 3818"/><polygon class="cls-13" points="9347 5125 4800 0 7817.67 5125 9347 5125"/><polygon class="cls-14" points="7817.67 5125 4800 0 6249.67 5125 7817.67 5125"/><polygon class="cls-15" points="3350.33 5125 6249.67 5125 4800 0 3350.33 5125"/></svg>