<svg xmlns="http://www.w3.org/2000/svg" width="1024" height="1024" viewBox="0 0 1024 1024">
  <defs>
    <style>
      .cls-1 {
        fill: #fff;
      }

      .cls-2 {
        fill: #007bff;
        fill-rule: evenodd;
      }
    </style>
  </defs>
  <circle class="cls-1" cx="512" cy="512" r="496"/>
  <path id="Vote" class="cls-2" d="M512,0c282.77,0,512,229.23,512,512s-229.23,512-512,512S0,794.77,0,512,229.23,0,512,0ZM305,846H719V494H306m105-49H613l3,12H408M654.334,247.033L449.09,390,374.077,282.308s118.577-24.265,129.98-32.208,77.029-108.223,77.029-108.223m-211.421,134.1s118.577-24.265,129.979-32.207,75.265-110.758,75.265-110.758M312,486l30-72H684l29,72"/>
</svg>
